<?xml version="1.0" encoding="iso-8859-1"?>
<!-- Generator: Adobe Illustrator 19.0.0, SVG Export Plug-In . SVG Version: 6.00 Build 0)  -->
<svg version="1.1" id="Capa_1" xmlns="http://www.w3.org/2000/svg" xmlns:xlink="http://www.w3.org/1999/xlink" x="0px" y="0px"
	 viewBox="0 0 512 512" style="enable-background:new 0 0 512 512;" xml:space="preserve">
<g>
	<g>
		<path d="M501.961,245.961h-42.423l10.335-10.335c3.92-3.92,3.92-10.277,0-14.198c-3.921-3.919-10.276-3.919-14.198,0
			l-24.532,24.534h-43.89l30.306-30.306c3.92-3.92,3.92-10.277,0-14.198c-3.921-3.919-10.276-3.919-14.198,0l-44.503,44.505h-78.62
			l55.593-55.593h62.937c5.544,0,10.039-4.496,10.039-10.039c0-5.544-4.496-10.039-10.039-10.039h-42.858l31.035-31.035h62.936
			c5.544,0,10.039-4.496,10.039-10.039c0-5.544-4.496-10.039-10.039-10.039h-42.857l29.997-29.997c3.92-3.92,3.92-10.277,0-14.198
			c-3.921-3.919-10.276-3.919-14.198,0l-29.997,29.997V62.12c0-5.544-4.496-10.039-10.039-10.039s-10.039,4.496-10.039,10.039
			v62.936l-31.035,31.035v-42.858c0-5.544-4.496-10.039-10.039-10.039s-10.039,4.496-10.039,10.039v62.937l-55.593,55.593v-78.62
			l44.504-44.503c3.92-3.92,3.92-10.277,0-14.198c-3.919-3.917-10.274-3.919-14.198,0l-30.305,30.306v-43.89l44.504-44.503
			c3.92-3.92,3.92-10.277,0-14.198c-3.919-3.917-10.274-3.919-14.198,0l-30.305,30.306V10.039C266.039,4.496,261.544,0,256,0
			c-5.544,0-10.039,4.496-10.039,10.039v42.423l-30.306-30.306c-3.921-3.919-10.276-3.919-14.198,0c-3.92,3.92-3.92,10.277,0,14.198
			l44.505,44.503v43.89l-30.306-30.306c-3.921-3.919-10.276-3.919-14.198,0c-3.92,3.92-3.92,10.277,0,14.198l44.505,44.503v78.62
			l-55.593-55.593v-62.937c0-5.544-4.496-10.039-10.039-10.039c-5.544,0-10.039,4.496-10.039,10.039v42.858l-31.035-31.035V62.12
			c0-5.544-4.496-10.039-10.039-10.039c-5.544,0-10.039,4.496-10.039,10.039v42.857L89.178,74.98
			c-3.921-3.919-10.276-3.919-14.198,0c-3.92,3.92-3.92,10.277,0,14.198l29.997,29.997H62.12c-5.544,0-10.039,4.496-10.039,10.039
			c0,5.544,4.496,10.039,10.039,10.039h62.936l31.035,31.035h-42.858c-5.544,0-10.039,4.496-10.039,10.039
			c0,5.544,4.496,10.039,10.039,10.039h62.937l55.593,55.593h-78.62l-44.503-44.504c-3.919-3.918-10.274-3.919-14.198,0
			c-3.92,3.92-3.92,10.277,0,14.198l30.306,30.305h-43.89l-44.503-44.504c-3.92-3.918-10.275-3.919-14.198,0
			c-3.92,3.92-3.92,10.277,0,14.198l30.306,30.305H10.039C4.496,245.961,0,250.456,0,256c0,5.544,4.496,10.039,10.039,10.039h42.423
			l-30.306,30.306c-3.92,3.92-3.92,10.277,0,14.198c1.961,1.96,4.53,2.94,7.099,2.94s5.138-0.981,7.099-2.94l44.504-44.505h43.89
			l-30.306,30.306c-3.92,3.92-3.92,10.277,0,14.198c1.961,1.96,4.53,2.94,7.099,2.94s5.138-0.981,7.099-2.94l44.504-44.505h78.62
			l-55.593,55.593h-62.937c-5.544,0-10.039,4.496-10.039,10.039s4.496,10.039,10.039,10.039h42.858l-31.035,31.035H62.12
			c-5.544,0-10.039,4.496-10.039,10.039s4.496,10.039,10.039,10.039h42.857L74.98,422.822c-3.92,3.92-3.92,10.277,0,14.198
			c1.961,1.96,4.53,2.94,7.099,2.94s5.138-0.981,7.099-2.94l29.997-29.997v42.857c0,5.544,4.496,10.039,10.039,10.039
			s10.039-4.496,10.039-10.039v-62.936l31.035-31.035v42.858c0,5.544,4.496,10.039,10.039,10.039
			c5.544,0,10.039-4.496,10.039-10.039v-62.937l55.594-55.593v78.62l-44.504,44.503c-3.92,3.92-3.92,10.277,0,14.198
			c3.921,3.918,10.276,3.92,14.198,0l30.305-30.306v43.89l-44.504,44.503c-3.92,3.92-3.92,10.277,0,14.198
			c3.921,3.919,10.276,3.92,14.198,0l30.305-30.306v42.423c0,5.544,4.496,10.039,10.039,10.039c5.544,0,10.039-4.496,10.039-10.039
			v-42.423l30.306,30.306c1.961,1.96,4.53,2.94,7.099,2.94c2.569,0,5.138-0.981,7.099-2.94c3.92-3.92,3.92-10.277,0-14.198
			l-44.504-44.503v-43.89l30.306,30.306c1.961,1.96,4.53,2.94,7.099,2.94c2.569,0,5.138-0.981,7.099-2.94
			c3.92-3.92,3.92-10.277,0-14.198l-44.504-44.503v-78.62l55.593,55.593v62.937c0,5.544,4.496,10.039,10.039,10.039
			s10.039-4.496,10.039-10.039v-42.858l31.035,31.035v62.936c0,5.544,4.496,10.039,10.039,10.039s10.039-4.496,10.039-10.039
			v-42.857l29.997,29.997c1.961,1.96,4.53,2.94,7.099,2.94c2.569,0,5.138-0.981,7.099-2.94c3.92-3.92,3.92-10.277,0-14.198
			l-29.997-29.997h42.857c5.544,0,10.039-4.496,10.039-10.039s-4.496-10.039-10.039-10.039h-62.936l-31.035-31.035h42.858
			c5.544,0,10.039-4.496,10.039-10.039s-4.496-10.039-10.039-10.039H335.83l-55.592-55.593h78.62l44.503,44.504
			c1.961,1.96,4.53,2.94,7.099,2.94c2.569,0,5.138-0.981,7.099-2.94c3.92-3.92,3.92-10.277,0-14.198l-30.305-30.305h43.89
			l44.503,44.504c1.961,1.96,4.53,2.94,7.099,2.94s5.138-0.981,7.099-2.94c3.92-3.92,3.92-10.277,0-14.198l-30.305-30.305h42.423
			c5.544,0,10.039-4.496,10.039-10.039C512,250.456,507.504,245.961,501.961,245.961z"/>
	</g>
</g>
<g>
	<g>
		<path d="M482.746,245.961c-12.92,0-12.942,20.078,0,20.078C495.665,266.039,495.686,245.961,482.746,245.961z"/>
	</g>
</g>
<g>
</g>
<g>
</g>
<g>
</g>
<g>
</g>
<g>
</g>
<g>
</g>
<g>
</g>
<g>
</g>
<g>
</g>
<g>
</g>
<g>
</g>
<g>
</g>
<g>
</g>
<g>
</g>
<g>
</g>
</svg>
