<svg id="Layer_1" enable-background="new 0 0 511.886 511.886" height="512" viewBox="0 0 511.886 511.886" width="512" xmlns="http://www.w3.org/2000/svg"><path d="m429.557 101.932c-2.477-26.223-13.954-50.54-32.882-69.293-21.245-21.048-49.415-32.639-79.322-32.639-21.672 0-42.724 6.173-60.878 17.853-13.125 8.443-24.293 19.45-32.879 32.313-12.893-6.021-26.966-9.154-41.428-9.154-51.071 0-93.151 39.228-97.688 89.137-28.01 9.015-47.837 35.293-47.837 65.688 0 38.076 30.978 69.054 69.054 69.054h96.515l-40.433 58.712 66.448 31.536-15.498 156.749 136.736-198.551-66.448-31.536 1.672-16.91h103.92c47.77 0 86.634-38.864 86.634-86.634 0-32.371-17.641-61.365-45.686-76.325zm-124.781 223.401-50.741 73.68 6.123-61.929-53.69-25.481 50.741-73.68-6.123 61.929zm83.833-90.444h-100.954l10.86-109.839-75.643 109.839h-117.175c-21.534 0-39.054-17.52-39.054-39.054 0-19.708 14.745-36.354 34.298-38.721l13.701-1.658-.513-13.791c-.032-.852-.054-1.703-.054-2.562 0-37.547 30.546-68.093 68.093-68.093 13.839 0 27.159 4.129 38.52 11.939l14.455 9.938 7.574-15.823c13.683-28.589 42.98-47.064 74.636-47.064 21.947 0 42.619 8.506 58.208 23.95 15.579 15.435 24.28 36.004 24.5 57.92l.101 10.069 9.357 3.72c21.702 8.626 35.725 29.271 35.725 52.596-.001 31.227-25.407 56.634-56.635 56.634z"/></svg>